<svg width="148" height="67" viewBox="0 0 148 67" fill="none" xmlns="http://www.w3.org/2000/svg">
<path fill-rule="evenodd" clip-rule="evenodd" d="M14.2057 33.7985C17.2363 26.9796 29.3588 12.9629 50.005 21.676L57.5931 15.6309L26.2916 0L1.30873 29.6386L14.2057 33.7985ZM44.0387 65.9679C35.2152 68.4839 26.1324 65.6401 20.2677 59.3708C-8.70519 48.9491 -2.99895 42.1174 14.8465 37.7593C16.8623 30.0873 22.6915 23.608 30.8372 21.1286C41.6465 17.8384 52.9928 22.6701 58.3163 32.1251C63.3773 31.7814 68.3351 31.5148 72.9819 31.3152C67.9068 31.8976 63.1927 32.4807 58.8171 33.0637C59.423 34.2636 59.9345 35.5319 60.3393 36.8619L60.3305 36.8645C63.8297 49.3868 56.5577 62.3983 44.0387 65.9679ZM31.1681 22.2158C23.6228 24.5125 18.1654 30.4145 16.109 37.4597C27.186 34.9045 42.4741 33.2366 57.0533 32.2124C51.8785 23.5236 41.2766 19.139 31.1681 22.2158ZM57.6209 33.2242C35.9988 36.1459 22.8295 39.0611 15.2885 41.8657C15.0947 44.1687 15.2554 46.5339 15.8101 48.8874C16.9265 48.3579 18.6991 48.1855 20.7788 47.9832C24.3137 47.6394 28.7361 47.2092 32.3338 44.7926C36.5443 41.9646 38.9546 41.2313 41.3709 40.4963L41.371 40.4963C43.0288 39.992 44.6895 39.4868 46.9363 38.3036C51.8386 35.7219 54.6013 35.2134 58.9824 36.3638C58.603 35.2689 58.1465 34.221 57.6209 33.2242ZM17.4968 57.8264C9.84563 53.9256 -0.996463 48.3979 14.116 42.3189C13.9694 44.7378 14.1953 47.2158 14.8346 49.6761L14.8235 49.6934L14.8125 49.7108C15.8509 53.3524 17.6882 56.55 20.0799 59.1677C19.3 58.7457 18.422 58.2981 17.4975 57.8267L17.4968 57.8264ZM134.127 18.9677C133.602 19.9392 133.339 21.0527 133.339 22.3083C133.339 23.5788 133.602 24.7072 134.127 25.6937C134.668 26.6653 135.392 27.4201 136.3 27.9582C137.223 28.4963 138.242 28.7653 139.356 28.7653C140.343 28.7653 141.21 28.5785 141.958 28.2048C142.722 27.8162 143.319 27.3304 143.749 26.7475V28.5635H147.116V16.1427H143.749V17.9139C143.303 17.3459 142.707 16.8751 141.958 16.5014C141.226 16.1278 140.367 15.9409 139.38 15.9409C138.25 15.9409 137.223 16.2025 136.3 16.7256C135.392 17.2488 134.668 17.9961 134.127 18.9677ZM143.272 20.4026C143.59 20.9406 143.749 21.5908 143.749 22.3531C143.749 23.1154 143.59 23.7731 143.272 24.3261C142.953 24.8642 142.523 25.2827 141.982 25.5816C141.441 25.8656 140.86 26.0076 140.239 26.0076C139.634 26.0076 139.061 25.8581 138.52 25.5592C137.995 25.2603 137.565 24.8343 137.231 24.2813C136.913 23.7133 136.753 23.0556 136.753 22.3083C136.753 21.5609 136.913 20.9182 137.231 20.3801C137.565 19.8271 137.995 19.4086 138.52 19.1246C139.046 18.8406 139.619 18.6986 140.239 18.6986C140.86 18.6986 141.441 18.8481 141.982 19.147C142.523 19.431 142.953 19.8495 143.272 20.4026ZM130.896 11.9723V28.5633H127.553V11.9723H130.896ZM124.25 28.5633V11.9723H120.908V28.5633H124.25ZM115.958 14.6627C115.369 14.6627 114.876 14.4908 114.478 14.147C114.096 13.7883 113.905 13.3474 113.905 12.8242C113.905 12.3011 114.096 11.8676 114.478 11.5239C114.876 11.1651 115.369 10.9858 115.958 10.9858C116.547 10.9858 117.033 11.1651 117.415 11.5239C117.812 11.8676 118.011 12.3011 118.011 12.8242C118.011 13.3474 117.812 13.7883 117.415 14.147C117.033 14.4908 116.547 14.6627 115.958 14.6627ZM117.606 16.1424V28.5632H114.263V16.1424H117.606ZM108.828 16.1433L105.485 25.6719L102.143 16.1433H98.5612L103.432 28.5641H107.491L112.385 16.1433H108.828ZM82.9287 22.3083C82.9287 21.0527 83.1913 19.9392 83.7166 18.9677C84.2578 17.9961 84.982 17.2488 85.8893 16.7256C86.8125 16.2025 87.8392 15.9409 88.9693 15.9409C89.9562 15.9409 90.8157 16.1278 91.5479 16.5014C92.2961 16.8751 92.893 17.3459 93.3386 17.9139V16.1427H96.7052V28.5635H93.3386V26.7475C92.9089 27.3304 92.312 27.8162 91.5479 28.2048C90.7998 28.5785 89.9323 28.7653 88.9454 28.7653C87.8312 28.7653 86.8125 28.4963 85.8893 27.9582C84.982 27.4201 84.2578 26.6653 83.7166 25.6937C83.1913 24.7072 82.9287 23.5788 82.9287 22.3083ZM93.3386 22.3531C93.3386 21.5908 93.1795 20.9406 92.8611 20.4026C92.5428 19.8495 92.113 19.431 91.5718 19.147C91.0306 18.8481 90.4496 18.6986 89.8289 18.6986C89.2081 18.6986 88.6351 18.8406 88.1098 19.1246C87.5845 19.4086 87.1547 19.8271 86.8205 20.3801C86.5021 20.9182 86.343 21.5609 86.343 22.3083C86.343 23.0556 86.5021 23.7133 86.8205 24.2813C87.1547 24.8343 87.5845 25.2603 88.1098 25.5592C88.651 25.8581 89.224 26.0076 89.8289 26.0076C90.4496 26.0076 91.0306 25.8656 91.5718 25.5816C92.113 25.2827 92.5428 24.8642 92.8611 24.3261C93.1795 23.7731 93.3386 23.1154 93.3386 22.3531ZM80.4981 28.5632V12.9139H77.1555V19.3485H70.0165V12.9139H66.6739V28.5632H70.0165V21.9044H77.1555V28.5632H80.4981ZM143.804 40.1562C143.117 40.1562 142.499 40.0422 141.953 39.8142C141.407 39.5768 140.972 39.2586 140.648 38.8596C140.335 38.4607 140.163 38.019 140.132 37.5345H142.272C142.312 37.8385 142.469 38.0902 142.742 38.2897C143.025 38.4892 143.374 38.5889 143.789 38.5889C144.194 38.5889 144.507 38.5129 144.73 38.3609C144.963 38.2089 145.079 38.0142 145.079 37.7767C145.079 37.5203 144.937 37.3303 144.654 37.2068C144.381 37.0738 143.941 36.9314 143.334 36.7794C142.707 36.6369 142.191 36.4897 141.786 36.3377C141.392 36.1857 141.048 35.953 140.755 35.6395C140.471 35.3261 140.33 34.9034 140.33 34.3714C140.33 33.9345 140.461 33.5355 140.724 33.1746C140.997 32.8136 141.382 32.5287 141.877 32.3197C142.383 32.1107 142.975 32.0062 143.653 32.0062C144.654 32.0062 145.453 32.2437 146.05 32.7186C146.647 33.1841 146.976 33.8158 147.036 34.6136H145.003C144.973 34.3002 144.831 34.0532 144.578 33.8727C144.335 33.6828 144.007 33.5878 143.592 33.5878C143.208 33.5878 142.909 33.6543 142.697 33.7873C142.494 33.9202 142.393 34.1055 142.393 34.3429C142.393 34.6089 142.535 34.8131 142.818 34.9556C143.101 35.0886 143.541 35.2263 144.138 35.3688C144.745 35.5113 145.246 35.6585 145.64 35.8105C146.035 35.9625 146.374 36.1999 146.657 36.5229C146.95 36.8364 147.102 37.2543 147.112 37.7767C147.112 38.2327 146.976 38.6411 146.703 39.0021C146.44 39.363 146.055 39.648 145.549 39.857C145.054 40.0565 144.472 40.1562 143.804 40.1562ZM137.178 37.5908V33.7723H139.06V32.1338H137.178V30.1818H135.039V32.1338H134.037V33.7723H135.039V37.5766C135.039 39.2104 135.934 40.0273 137.724 40.0273H139.06V38.346H138.073C137.75 38.346 137.517 38.289 137.375 38.175C137.244 38.0515 137.178 37.8568 137.178 37.5908ZM132.606 29.4837V40.0273H130.481V29.4837H132.606ZM128.386 40.0278V32.1343H126.247V36.48C126.247 37.1069 126.08 37.5914 125.746 37.9333C125.412 38.2658 124.952 38.432 124.365 38.432C123.788 38.432 123.333 38.2658 122.999 37.9333C122.666 37.5914 122.499 37.1069 122.499 36.48V32.1343H120.374V36.765C120.374 37.4679 120.516 38.0758 120.799 38.5887C121.093 39.0922 121.492 39.4769 121.998 39.7428C122.504 39.9993 123.085 40.1275 123.743 40.1275C124.259 40.1275 124.734 40.0326 125.169 39.8426C125.614 39.6431 125.973 39.3724 126.247 39.0304V40.0278H128.386ZM115.399 40.1562C114.711 40.1562 114.094 40.0422 113.548 39.8142C113.001 39.5768 112.566 39.2586 112.243 38.8596C111.929 38.4607 111.757 38.019 111.727 37.5345H113.866C113.907 37.8385 114.064 38.0902 114.337 38.2897C114.62 38.4892 114.969 38.5889 115.384 38.5889C115.788 38.5889 116.102 38.5129 116.324 38.3609C116.557 38.2089 116.673 38.0142 116.673 37.7767C116.673 37.5203 116.532 37.3303 116.249 37.2068C115.975 37.0738 115.535 36.9314 114.928 36.7794C114.301 36.6369 113.785 36.4897 113.381 36.3377C112.986 36.1857 112.642 35.953 112.349 35.6395C112.066 35.3261 111.924 34.9034 111.924 34.3714C111.924 33.9345 112.056 33.5355 112.319 33.1746C112.592 32.8136 112.976 32.5287 113.472 32.3197C113.978 32.1107 114.569 32.0062 115.247 32.0062C116.249 32.0062 117.048 32.2437 117.644 32.7186C118.241 33.1841 118.57 33.8158 118.631 34.6136H116.598C116.567 34.3002 116.426 34.0532 116.173 33.8727C115.93 33.6828 115.601 33.5878 115.186 33.5878C114.802 33.5878 114.504 33.6543 114.291 33.7873C114.089 33.9202 113.988 34.1055 113.988 34.3429C113.988 34.6089 114.129 34.8131 114.413 34.9556C114.696 35.0886 115.136 35.2263 115.733 35.3688C116.34 35.5113 116.84 35.6585 117.235 35.8105C117.629 35.9625 117.968 36.1999 118.251 36.5229C118.545 36.8364 118.696 37.2543 118.707 37.7767C118.707 38.2327 118.57 38.6411 118.297 39.0021C118.034 39.363 117.65 39.648 117.144 39.857C116.648 40.0565 116.066 40.1562 115.399 40.1562ZM109.236 32.918C108.619 32.3196 107.81 32.0204 106.808 32.0204C106.282 32.0204 105.797 32.1201 105.352 32.3196C104.917 32.5096 104.557 32.7756 104.274 33.1175V32.1344H102.15V40.0279H104.274V35.6679C104.274 35.041 104.441 34.5613 104.775 34.2289C105.119 33.8869 105.584 33.7159 106.171 33.7159C106.747 33.7159 107.203 33.8869 107.536 34.2289C107.87 34.5613 108.037 35.041 108.037 35.6679V40.0279H110.161V35.3972C110.161 34.3334 109.853 33.507 109.236 32.918ZM96.2071 40.1562C95.3979 40.1562 94.6695 39.99 94.0221 39.6575C93.3747 39.3156 92.8639 38.8359 92.4896 38.2184C92.1255 37.601 91.9434 36.8886 91.9434 36.0812C91.9434 35.2738 92.1305 34.5614 92.5048 33.944C92.8892 33.3266 93.4101 32.8516 94.0677 32.5192C94.7252 32.1772 95.4585 32.0062 96.2678 32.0062C97.077 32.0062 97.8104 32.1772 98.4679 32.5192C99.1255 32.8516 99.6413 33.3266 100.016 33.944C100.4 34.5614 100.592 35.2738 100.592 36.0812C100.592 36.8886 100.395 37.601 100 38.2184C99.6161 38.8359 99.09 39.3156 98.4224 39.6575C97.7649 39.99 97.0265 40.1562 96.2071 40.1562ZM96.2071 38.4179C96.5915 38.4179 96.9506 38.3324 97.2844 38.1614C97.6283 37.981 97.9015 37.715 98.1038 37.3636C98.3061 37.0121 98.4072 36.5846 98.4072 36.0812C98.4072 35.3308 98.1948 34.7561 97.77 34.3572C97.3552 33.9487 96.8444 33.7445 96.2374 33.7445C95.6305 33.7445 95.1197 33.9487 94.7049 34.3572C94.3003 34.7561 94.098 35.3308 94.098 36.0812C94.098 36.8316 94.2953 37.411 94.6898 37.8195C95.0944 38.2184 95.6002 38.4179 96.2071 38.4179ZM81.0093 32.4199C80.5439 33.1893 80.3113 34.0632 80.3113 35.0415C80.3113 36.0199 80.5439 36.8938 81.0093 37.6632C81.4847 38.4326 82.127 39.0358 82.9363 39.4727C83.7556 39.9002 84.6711 40.1139 85.6827 40.1139C86.8763 40.1139 87.9132 39.8337 88.7932 39.2733C89.6834 38.7033 90.3055 37.9102 90.6595 36.8938H88.2166C87.9739 37.3688 87.6299 37.7297 87.1848 37.9767C86.7499 38.2141 86.2441 38.3329 85.6675 38.3329C85.0504 38.3329 84.4991 38.1999 84.0136 37.9339C83.5382 37.6585 83.1639 37.2738 82.8908 36.7798C82.6278 36.2764 82.4963 35.697 82.4963 35.0415C82.4963 34.3766 82.6278 33.7972 82.8908 33.3033C83.1639 32.8093 83.5382 32.4294 84.0136 32.1634C84.4991 31.8879 85.0504 31.7502 85.6675 31.7502C86.2441 31.7502 86.7499 31.8689 87.1848 32.1064C87.6299 32.3439 87.9739 32.7001 88.2166 33.175H90.6595C90.3055 32.1682 89.6834 31.3798 88.7932 30.8098C87.903 30.2399 86.8662 29.9549 85.6827 29.9549C84.6711 29.9549 83.7556 30.1734 82.9363 30.6104C82.127 31.0378 81.4847 31.641 81.0093 32.4199Z" fill="#C3995D"/>
</svg>
