<svg width="116" height="52" viewBox="0 0 116 52" fill="none" xmlns="http://www.w3.org/2000/svg">
<path fill-rule="evenodd" clip-rule="evenodd" d="M38.8796 16.8533C22.827 10.0788 13.4016 20.9769 11.0453 26.2787L1.01778 23.0443L20.4422 0L44.7795 12.1532L38.8796 16.8533ZM15.7586 46.1617C20.3185 51.0358 27.3802 53.2467 34.2404 51.2905C43.974 48.5151 49.628 38.3985 46.9074 28.6624L46.9144 28.6603C46.5997 27.6263 46.2021 26.6404 45.7311 25.7075C49.1331 25.2543 52.7983 24.8009 56.7441 24.348C53.1312 24.5033 49.2766 24.7105 45.3417 24.9778C41.2027 17.6261 32.3807 13.8693 23.9762 16.4275C17.6427 18.3553 13.1104 23.3932 11.5432 29.3584C-2.33185 32.7469 -6.76845 38.0586 15.7586 46.1617ZM12.5248 29.1255C14.1236 23.6476 18.3668 19.0585 24.2335 17.2728C32.0931 14.8805 40.3363 18.2897 44.3597 25.0456C33.0242 25.8419 21.1373 27.1387 12.5248 29.1255ZM11.8869 32.5511C17.7501 30.3706 27.9895 28.104 44.801 25.8323C45.2096 26.6072 45.5645 27.4219 45.8594 28.2731C42.453 27.3786 40.3049 27.7739 36.4933 29.7812C34.7464 30.7012 33.4552 31.094 32.1662 31.4861C30.2875 32.0576 28.4134 32.6277 25.1397 34.8265C22.3424 36.7054 18.9039 37.0399 16.1556 37.3072H16.1555C14.5386 37.4645 13.1605 37.5985 12.2925 38.0102C11.8613 36.1805 11.7363 34.3416 11.8869 32.5511ZM10.9753 32.9035C-0.774838 37.63 7.65502 41.9278 13.6039 44.9608L13.6044 44.961L13.6046 44.9611L13.6055 44.9616C14.3241 45.328 15.0065 45.6759 15.6127 46.0039C13.7528 43.9685 12.3241 41.4821 11.5167 38.6505L11.5242 38.6386L11.534 38.6233C11.037 36.7106 10.8614 34.7841 10.9753 32.9035ZM105.138 16.4428C105.138 15.4034 105.342 14.4815 105.751 13.6772C106.171 12.8729 106.734 12.2541 107.44 11.821C108.157 11.3879 108.955 11.1714 109.834 11.1714C110.601 11.1714 111.269 11.3261 111.839 11.6354C112.42 11.9448 112.884 12.3346 113.231 12.8048V11.3384H115.848V21.6214H113.231V20.118C112.897 20.6006 112.433 21.0027 111.839 21.3244C111.257 21.6338 110.583 21.7885 109.815 21.7885C108.949 21.7885 108.157 21.5657 107.44 21.1203C106.734 20.6748 106.171 20.0499 105.751 19.2456C105.342 18.4289 105.138 17.4946 105.138 16.4428ZM113.231 16.4799C113.231 15.8489 113.107 15.3106 112.86 14.8651C112.612 14.4073 112.278 14.0608 111.857 13.8257C111.436 13.5782 110.985 13.4544 110.502 13.4544C110.02 13.4544 109.574 13.572 109.166 13.8071C108.757 14.0422 108.423 14.3887 108.163 14.8465C107.916 15.292 107.792 15.8241 107.792 16.4428C107.792 17.0615 107.916 17.606 108.163 18.0762C108.423 18.5341 108.757 18.8867 109.166 19.1342C109.587 19.3817 110.032 19.5054 110.502 19.5054C110.985 19.5054 111.436 19.3879 111.857 19.1528C112.278 18.9053 112.612 18.5588 112.86 18.1133C113.107 17.6555 113.231 17.111 113.231 16.4799ZM103.239 21.6212V7.88583H100.64V21.6212H103.239ZM98.0727 7.88583V21.6212H95.4741V7.88583H98.0727ZM90.4752 9.68637C90.7846 9.97098 91.1682 10.1133 91.626 10.1133C92.0838 10.1133 92.4613 9.97098 92.7582 9.68637C93.0676 9.38939 93.2223 9.02435 93.2223 8.59125C93.2223 8.15815 93.0676 7.7993 92.7582 7.51469C92.4613 7.21771 92.0838 7.06922 91.626 7.06922C91.1682 7.06922 90.7846 7.21771 90.4752 7.51469C90.1782 7.7993 90.0297 8.15815 90.0297 8.59125C90.0297 9.02435 90.1782 9.38939 90.4752 9.68637ZM92.9067 21.6213V11.3383H90.3081V21.6213H92.9067ZM83.4844 19.2269L86.083 11.3384H88.8486L85.0435 21.6214H81.8881L78.1016 11.3384H80.8858L83.4844 19.2269ZM66.5614 13.6772C66.1531 14.4815 65.9489 15.4034 65.9489 16.4428C65.9489 17.4946 66.1531 18.4289 66.5614 19.2456C66.9821 20.0499 67.5452 20.6748 68.2505 21.1203C68.9682 21.5657 69.7601 21.7885 70.6263 21.7885C71.3935 21.7885 72.0679 21.6338 72.6495 21.3244C73.2435 21.0027 73.7075 20.6006 74.0416 20.118V21.6214H76.6588V11.3384H74.0416V12.8048C73.6951 12.3346 73.2311 11.9448 72.6495 11.6354C72.0803 11.3261 71.4121 11.1714 70.6449 11.1714C69.7663 11.1714 68.9682 11.3879 68.2505 11.821C67.5452 12.2541 66.9821 12.8729 66.5614 13.6772ZM73.6704 14.8651C73.9179 15.3106 74.0416 15.8489 74.0416 16.4799C74.0416 17.111 73.9179 17.6555 73.6704 18.1133C73.4229 18.5588 73.0888 18.9053 72.6681 19.1528C72.2474 19.3879 71.7957 19.5054 71.3131 19.5054C70.8429 19.5054 70.3974 19.3817 69.9767 19.1342C69.5683 18.8867 69.2342 18.5341 68.9744 18.0762C68.7269 17.606 68.6031 17.0615 68.6031 16.4428C68.6031 15.8241 68.7269 15.292 68.9744 14.8465C69.2342 14.3887 69.5683 14.0422 69.9767 13.8071C70.385 13.572 70.8305 13.4544 71.3131 13.4544C71.7957 13.4544 72.2474 13.5782 72.6681 13.8257C73.0888 14.0608 73.4229 14.4073 73.6704 14.8651ZM64.0594 8.66534V21.6211H61.4608V16.1084H55.9109V21.6211H53.3124V8.66534H55.9109V13.9924H61.4608V8.66534H64.0594ZM104.063 31.4064V22.3853H102.35V31.4064H104.063ZM64.3439 26.201C64.0585 26.7211 63.9159 27.3306 63.9159 28.0296C63.9159 28.7285 64.0585 29.3421 64.3439 29.8704C64.6293 30.3905 65.0248 30.7969 65.5303 31.0894C66.0359 31.3739 66.6148 31.5161 67.2671 31.5161C68.0988 31.5161 68.7919 31.3007 69.3463 30.87C69.9008 30.4393 70.2718 29.8582 70.4593 29.1267H68.6125C68.4005 29.7444 67.9479 30.0532 67.2549 30.0532C66.7656 30.0532 66.3783 29.8785 66.0929 29.529C65.8075 29.1714 65.6649 28.6716 65.6649 28.0296C65.6649 27.3794 65.8075 26.8796 66.0929 26.5301C66.3783 26.1725 66.7656 25.9937 67.2549 25.9937C67.5973 25.9937 67.8827 26.0791 68.111 26.2497C68.3475 26.4123 68.5146 26.6398 68.6125 26.9324H70.4593C70.2718 26.1766 69.9008 25.5914 69.3463 25.177C68.8 24.7543 68.1069 24.543 67.2671 24.543C66.6148 24.543 66.0359 24.6893 65.5303 24.9819C65.0248 25.2663 64.6293 25.6727 64.3439 26.201ZM72.9613 31.0894C73.4831 31.3739 74.0702 31.5161 74.7225 31.5161C75.383 31.5161 75.9782 31.3739 76.5082 31.0894C77.0463 30.7969 77.4703 30.3864 77.7802 29.8582C78.0982 29.3299 78.2572 28.7204 78.2572 28.0296C78.2572 27.3388 78.1023 26.7292 77.7924 26.201C77.4907 25.6727 77.0749 25.2663 76.5449 24.9819C76.0149 24.6893 75.4237 24.543 74.7714 24.543C74.1191 24.543 73.528 24.6893 72.998 24.9819C72.468 25.2663 72.048 25.6727 71.7382 26.201C71.4365 26.7292 71.2857 27.3388 71.2857 28.0296C71.2857 28.7204 71.4324 29.3299 71.726 29.8582C72.0277 30.3864 72.4394 30.7969 72.9613 31.0894ZM75.5909 29.8094C75.3218 29.9557 75.0323 30.0289 74.7225 30.0289C74.2333 30.0289 73.8256 29.8582 73.4994 29.5168C73.1814 29.1674 73.0224 28.6716 73.0224 28.0296C73.0224 27.3875 73.1855 26.8958 73.5117 26.5545C73.846 26.205 74.2577 26.0303 74.747 26.0303C75.2362 26.0303 75.648 26.205 75.9823 26.5545C76.3247 26.8958 76.496 27.3875 76.496 28.0296C76.496 28.4603 76.4144 28.826 76.2513 29.1267C76.0883 29.4274 75.8681 29.655 75.5909 29.8094ZM83.2681 24.5552C84.0753 24.5552 84.7276 24.8112 85.225 25.3232C85.7224 25.8271 85.9711 26.5342 85.9711 27.4444V31.4064H84.2588V27.676C84.2588 27.1397 84.1242 26.7292 83.8551 26.4448C83.5861 26.1522 83.2191 26.0059 82.7544 26.0059C82.2815 26.0059 81.9064 26.1522 81.6292 26.4448C81.3601 26.7292 81.2255 27.1397 81.2255 27.676V31.4064H79.5132V24.6528H81.2255V25.4939C81.4538 25.2013 81.7433 24.9738 82.0939 24.8112C82.4527 24.6406 82.8441 24.5552 83.2681 24.5552ZM88.7002 31.2235C89.1405 31.4186 89.6378 31.5161 90.1923 31.5161C90.7305 31.5161 91.1993 31.4308 91.5988 31.2601C92.0065 31.0813 92.3164 30.8375 92.5284 30.5287C92.7485 30.2198 92.8586 29.8704 92.8586 29.4803C92.8505 29.0333 92.7281 28.6757 92.4917 28.4075C92.2634 28.1312 91.9902 27.928 91.6722 27.798C91.3542 27.6679 90.9506 27.5419 90.4614 27.42C89.9803 27.2981 89.6256 27.1803 89.3973 27.0665C89.169 26.9446 89.0548 26.7699 89.0548 26.5423C89.0548 26.3391 89.1364 26.1807 89.2995 26.0669C89.4707 25.9531 89.7112 25.8962 90.0211 25.8962C90.3554 25.8962 90.6204 25.9775 90.8161 26.14C91.0199 26.2944 91.1341 26.5057 91.1585 26.7739H92.7975C92.7485 26.0913 92.4835 25.5508 92.0025 25.1526C91.5214 24.7462 90.8772 24.543 90.07 24.543C89.5237 24.543 89.0467 24.6324 88.639 24.8112C88.2395 24.99 87.9296 25.2338 87.7095 25.5427C87.4975 25.8515 87.3915 26.1928 87.3915 26.5667C87.3915 27.0218 87.5056 27.3835 87.7339 27.6517C87.9704 27.9199 88.2476 28.119 88.5656 28.249C88.8918 28.379 89.3076 28.505 89.8131 28.6269C90.3024 28.757 90.6571 28.8789 90.8772 28.9926C91.1055 29.0983 91.2197 29.2608 91.2197 29.4803C91.2197 29.6834 91.1259 29.8501 90.9384 29.9801C90.759 30.1101 90.5062 30.1751 90.1801 30.1751C89.8458 30.1751 89.5645 30.0898 89.3362 29.9191C89.116 29.7485 88.9896 29.5331 88.957 29.273H87.2325C87.2569 29.6875 87.3955 30.0654 87.6483 30.4068C87.9092 30.7481 88.2598 31.0204 88.7002 31.2235ZM100.661 31.4064H98.9363V30.5531C98.7162 30.8456 98.4267 31.0773 98.068 31.2479C97.7173 31.4105 97.3341 31.4917 96.9183 31.4917C96.3883 31.4917 95.9194 31.382 95.5117 31.1626C95.104 30.935 94.782 30.6059 94.5455 30.1751C94.3172 29.7363 94.203 29.2161 94.203 28.6147V24.6528H95.9153V28.3709C95.9153 28.9073 96.0499 29.3218 96.319 29.6144C96.588 29.8988 96.955 30.041 97.4197 30.041C97.8927 30.041 98.2636 29.8988 98.5327 29.6144C98.8018 29.3218 98.9363 28.9073 98.9363 28.3709V24.6528H100.661V31.4064ZM107.748 26.0547V29.3218C107.748 29.5493 107.801 29.716 107.907 29.8216C108.021 29.9191 108.209 29.9679 108.47 29.9679H109.265V31.4064H108.188C106.745 31.4064 106.023 30.7075 106.023 29.3096V26.0547H105.216V24.6528H106.023V22.9826H107.748V24.6528H109.265V26.0547H107.748ZM111.597 31.2235C112.037 31.4186 112.535 31.5161 113.089 31.5161C113.627 31.5161 114.096 31.4308 114.496 31.2601C114.903 31.0813 115.213 30.8375 115.425 30.5287C115.645 30.2198 115.755 29.8704 115.755 29.4803C115.747 29.0333 115.625 28.6757 115.389 28.4075C115.16 28.1312 114.887 27.928 114.569 27.798C114.251 27.6679 113.847 27.5419 113.358 27.42C112.877 27.2981 112.522 27.1803 112.294 27.0665C112.066 26.9446 111.952 26.7699 111.952 26.5423C111.952 26.3391 112.033 26.1807 112.196 26.0669C112.368 25.9531 112.608 25.8962 112.918 25.8962C113.252 25.8962 113.517 25.9775 113.713 26.14C113.917 26.2944 114.031 26.5057 114.055 26.7739H115.694C115.645 26.0913 115.38 25.5508 114.899 25.1526C114.418 24.7462 113.774 24.543 112.967 24.543C112.421 24.543 111.944 24.6324 111.536 24.8112C111.136 24.99 110.826 25.2338 110.606 25.5427C110.394 25.8515 110.288 26.1928 110.288 26.5667C110.288 27.0218 110.402 27.3835 110.631 27.6517C110.867 27.9199 111.144 28.119 111.462 28.249C111.789 28.379 112.204 28.505 112.71 28.6269C113.199 28.757 113.554 28.8789 113.774 28.9926C114.002 29.0983 114.117 29.2608 114.117 29.4803C114.117 29.6834 114.023 29.8501 113.835 29.9801C113.656 30.1101 113.403 30.1751 113.077 30.1751C112.743 30.1751 112.461 30.0898 112.233 29.9191C112.013 29.7485 111.886 29.5331 111.854 29.273H110.129C110.154 29.6875 110.292 30.0654 110.545 30.4068C110.806 30.7481 111.157 31.0204 111.597 31.2235Z" fill="#C3995D"/>
</svg>
