<svg width="57" height="52" viewBox="0 0 57 52" fill="none" xmlns="http://www.w3.org/2000/svg">
<path fill-rule="evenodd" clip-rule="evenodd" d="M11.0453 26.2787C13.4016 20.9769 22.827 10.0788 38.8796 16.8533L44.7795 12.1532L20.4422 0L1.01779 23.0443L11.0453 26.2787ZM34.2404 51.2905C27.3802 53.2467 20.3185 51.0358 15.7586 46.1617C-25.9706 31.1516 24.8232 25.7196 56.7441 24.348C-11.4703 32.1772 4.17991 40.1561 13.6039 44.9608L13.6044 44.961C14.3235 45.3276 15.0062 45.6757 15.6127 46.0039C13.7529 43.9685 12.3242 41.4821 11.5167 38.6505C12.1041 37.7013 13.8968 37.5269 16.1556 37.3072C18.904 37.0399 22.3424 36.7054 25.1397 34.8265C28.4134 32.6277 30.2875 32.0576 32.1662 31.4861C33.4552 31.094 34.7464 30.7012 36.4933 29.7812C40.6718 27.5807 42.851 27.3174 46.8805 28.5669C49.665 38.3323 44.0058 48.506 34.2404 51.2905Z" fill="#C3995D"/>
<path fill-rule="evenodd" clip-rule="evenodd" d="M23.9761 16.4274C33.6883 13.4712 43.9581 18.948 46.9143 28.6602L46.069 28.9175C43.2549 19.6722 33.4788 14.4587 24.2334 17.2728C14.9881 20.0869 9.77458 29.863 12.5887 39.1083L11.7434 39.3656C8.78713 29.6534 14.2639 19.3837 23.9761 16.4274Z" fill="#C3995D"/>
</svg>
